<?xml version="1.0" encoding="UTF-8" standalone="no"?>
<svg width="150px" height="150px" viewBox="0 0 150 150" version="1.1" xmlns="http://www.w3.org/2000/svg" xmlns:xlink="http://www.w3.org/1999/xlink" xmlns:sketch="http://www.bohemiancoding.com/sketch/ns">
    <!-- Generator: Sketch 3.4.2 (15857) - http://www.bohemiancoding.com/sketch -->
    <title>/help/detskii-aviabilet-sekrety-opytnyh-roditelei</title>
    <desc>Created with Sketch.</desc>
    <defs>
        <path id="path-1" d="M0,0.177309278 L119.825455,0.177309278 L119.825455,91 L0,91"></path>
        <path id="path-3" d="M0,0.177309278 L119.825455,0.177309278 L119.825455,91 L0,91"></path>
        <path id="path-5" d="M0,0.177309278 L119.825455,0.177309278 L119.825455,91 L0,91"></path>
    </defs>
    <g id="Page-3" stroke="none" stroke-width="1" fill="none" fill-rule="evenodd" sketch:type="MSPage">
        <g id="/help/detskii-aviabilet-sekrety-opytnyh-roditelei" sketch:type="MSArtboardGroup">
            <g id="Page-1" sketch:type="MSLayerGroup" transform="translate(16.000000, 29.000000)">
                <path d="M84.1712104,26.5398216 C85.0302234,26.4569522 85.8876779,26.3847151 86.6132883,25.8577907 C87.2697039,25.3809007 87.2821714,24.7495296 86.6603532,24.2407426 C85.5616519,23.3420003 82.8206649,23.3401241 81.727574,24.23699 C81.0777039,24.7704814 81.0826909,25.3236739 81.7490805,25.842155 C82.4644052,26.3987873 83.3277818,26.4444436 84.1712104,26.5398216 M25.4107948,14.0696945 C28.1421195,14.9556155 30.870639,15.8506052 33.6060156,16.7233921 C34.8565091,17.1224162 35.4792623,17.9789419 35.7099117,19.2520038 C36.2217039,22.0811344 36.5701714,24.9402856 37.2571325,27.7384574 C38.364561,32.2490553 40.0632623,36.4403715 43.5404571,39.6994849 C43.8979636,40.0347151 44.2701195,40.3011481 44.7560416,40.3124058 C48.5658078,40.402155 52.2131844,41.3868938 55.8711584,42.317533 C58.1505351,42.8976189 60.4183792,43.5380588 62.7504312,43.8739144 C65.5129247,44.2720003 67.8858078,43.5433749 69.6979636,41.3130931 C70.0648208,40.861533 70.2636779,40.3258526 70.4563013,39.7879832 C71.622639,36.5291825 72.482587,33.1906395 72.9111584,29.7545296 C73.038639,28.7303887 73.1181195,27.6915502 73.1181195,26.6470828 C73.1181195,22.0833234 75.9049247,18.5283818 80.3673662,17.747533 C85.2138078,16.8997632 89.3804571,19.953423 90.4277299,24.4896636 C90.5804571,25.151368 90.4152623,25.8446567 90.7179117,26.4735261 C88.9129247,27.3785227 87.1129247,28.2941515 85.2976519,29.1794471 C84.9226909,29.3623852 84.7749506,29.5634608 84.7830545,29.9984471 C84.8117299,31.5613955 84.7886649,33.1249694 84.7855481,34.6882306 C83.9284052,34.8733577 83.0809247,35.1163371 82.2010286,35.1688732 C81.7478338,35.1963921 81.7677818,35.5744643 81.6960935,35.8427735 C81.0477818,38.2660003 80.0812364,40.5588251 78.9024312,42.7634643 C77.378587,45.6129213 75.5237299,48.230344 73.4600416,50.7154883 C70.7427429,53.9871103 67.6037299,56.812801 64.3431584,59.5037117 C61.9200935,61.5038354 59.099626,62.8372512 56.1800416,63.9483268 C51.9996779,65.5387942 47.6591065,66.4247151 43.2290805,66.965399 C42.4716779,67.0579625 41.599574,66.7624471 40.9303792,67.3938182 C40.8007169,67.1630347 40.5806649,67.2215124 40.3833662,67.2321447 C38.7180156,67.3212684 37.0532883,67.442289 35.3845091,67.3906911 C35.0114182,67.3794333 34.8480935,67.6296052 34.6336519,67.8375605 C33.1409766,68.6700072 31.6423792,69.4958869 29.9583273,69.8799007 C26.8853922,70.5797564 23.8043532,70.553801 20.7251844,69.9114849 C17.5484571,69.2485296 14.5671584,68.1221309 11.9265351,66.1807976 C10.6532883,65.2448423 9.53526234,64.1834883 9.01193766,62.636801 C8.72456104,61.7877804 8.78097662,61.6789557 9.66274286,61.5269763 C12.8188987,60.9841034 15.324561,59.1919351 17.776613,57.2993852 C18.1281974,57.0279488 18.6321974,56.8722168 18.7001455,56.320588 C21.7730805,57.4644986 24.8011325,57.2649866 27.7908468,56.0078732 C28.1505351,55.856832 28.5018078,55.696722 28.8995221,55.6754574 C30.6371844,55.5828938 32.3577039,55.3446052 34.0663792,55.0281378 C35.8168208,54.7038526 37.5653922,54.362368 39.2734442,53.7503852 C39.2073662,53.6406223 39.1811844,53.5618182 39.1272623,53.5133474 C38.8760416,53.2878801 38.6223273,53.064289 38.3605091,52.8510175 C35.3461714,50.3962065 32.5247688,47.7528285 30.3457558,44.4943405 C27.6680416,40.4903405 26.1563532,36.151423 26.6453922,31.2558732 C26.6884052,30.8240141 26.6051844,30.5338148 26.1912623,30.2980278 C25.7452364,30.043478 25.3387948,29.7019935 24.9576,29.3517529 C21.9996779,26.6345742 21.1680935,23.2259832 21.9208208,19.3958526 C22.3412883,17.2546945 23.210587,15.316801 25.3444052,14.2789007 C25.3896,14.2566979 25.3899117,14.1413062 25.4107948,14.0696945" id="Fill-1" fill="#B0BDC4" sketch:type="MSShapeGroup"></path>
                <g id="Group-5">
                    <mask id="mask-2" sketch:name="Clip 4" fill="white">
                        <use xlink:href="#path-1"></use>
                    </mask>
                    <g id="Clip-4"></g>
                    <path d="M8.53262338,18.9085491 C8.50581818,18.9410715 8.48057143,18.9720302 8.45501299,19.002989 C8.49896104,19.0208137 8.54384416,19.0533361 8.58654545,19.0511471 C8.61584416,19.0495835 8.64233766,18.9992364 8.67007792,18.9707794 C8.62457143,18.9501402 8.57937662,18.929501 8.53262338,18.9085491 M25.4108571,14.0696007 C25.3896623,14.1412124 25.3896623,14.2569168 25.3444675,14.2788069 C23.2106494,15.3170199 22.3413506,17.2546007 21.9208831,19.3960715 C21.1681558,23.2258893 21.9997403,26.6344804 24.9576623,29.3519718 C25.3385455,29.7018997 25.7452987,30.0433842 26.1913247,30.297934 C26.6052468,30.5340337 26.6884675,30.824233 26.6454545,31.2557794 C26.1561039,36.1516419 27.6681039,40.4905595 30.3455065,44.4942467 C32.5248312,47.7530474 35.3462338,50.3961127 38.3605714,52.8512364 C38.6223896,53.0645079 38.8761039,53.2877863 39.1273247,53.5135663 C39.1812468,53.5617244 39.2074286,53.6405285 39.2735065,53.7502914 C37.5654545,54.3622742 35.8168831,54.7037588 34.0664416,55.028044 C32.3577662,55.3448241 30.6369351,55.5828 28.8995844,55.6756763 C28.5015584,55.6969409 28.1502857,55.8567381 27.7909091,56.0080921 C24.8011948,57.2652055 21.7728312,57.4644048 18.7002078,56.3204942 C17.431013,55.7966969 17.4369351,55.8017003 18.3252468,54.7106385 C19.1147532,53.7412227 20.1021818,53.0032158 21.3093506,52.2057931 C19.9154805,52.2661471 18.746961,52.1707691 17.6183377,51.7645526 C16.7786494,51.4624701 16.0312208,51.0171643 15.3305455,50.46491 C14.9608831,50.1737725 14.9989091,49.9820784 15.3006234,49.6784323 C16.0708052,48.9050887 16.9157922,48.2283739 17.978026,47.5525973 C15.3215065,47.2061093 13.1527792,46.2754701 11.7271169,44.0111024 C12.7042597,43.3572158 13.7396883,42.8956488 14.8106494,42.50069 C14.9805195,42.4381471 15.2819221,42.4572227 15.2566753,42.1723395 C15.2336104,41.9146625 14.9717922,41.9184151 14.7716883,41.8727588 C12.7881039,41.4215113 10.9952727,40.6025113 9.54623377,39.1274357 C8.66602597,38.2315079 8.67038961,38.2377622 9.79714286,37.6257794 C10.5925714,37.194233 11.4419221,36.8940268 12.4810909,36.5403464 C9.85948052,35.7573086 7.64524675,34.6218412 5.91101299,32.588257 C7.05272727,31.840556 8.34872727,31.6000784 9.75381818,31.1941746 C7.2067013,30.7585629 5.22093506,29.6806351 3.83485714,27.6411093 C3.06935065,26.5143979 3.08524675,26.4909443 4.36472727,26.092233 C5.08316883,25.8686419 5.81220779,25.6903945 6.55994805,25.5965801 C7.30519481,25.5030784 8.04981818,25.4067622 8.84587013,25.3051299 C8.70155844,25.0302536 8.40950649,24.9908515 8.18914286,24.8726454 C5.5372987,23.453233 3.7132987,21.3868137 3.03849351,18.3797485 C2.90664935,17.7924701 3.0652987,17.6908378 3.58550649,17.8224907 C4.89085714,18.1524048 6.20057143,18.4669959 7.50561039,18.7975354 C7.75496104,18.8607038 7.99277922,18.9714048 8.30633766,18.9154289 C8.15548052,18.530477 7.77335065,18.4538619 7.50654545,18.2599787 C4.64649351,16.1794873 2.99142857,13.4397931 2.90976623,9.8395079 C2.88794805,8.87353196 2.91288312,8.86102337 3.83205195,9.24347354 C5.39267532,9.89298213 6.85137662,10.7335595 8.25833766,11.6679512 C8.71122078,11.9687828 9.1718961,12.2574186 9.62883117,12.5516832 C9.71641558,12.6182914 9.804,12.6848997 9.89158442,12.7515079 C9.9614026,12.8109237 10.0312208,12.8709649 10.101039,12.9306935 C10.1954805,12.7987278 10.1390649,12.7036625 10.0268571,12.6217313 C9.95205195,12.5491814 9.87724675,12.4769443 9.80275325,12.4043945 C7.53553247,9.95489966 6.0652987,7.12264192 5.68503896,3.7678378 C5.55225974,2.59609553 5.58966234,1.43123299 5.85584416,0.177246735 C6.60981818,0.594095533 7.21667532,1.14697526 7.82446753,1.68765911 C9.06841558,2.79373127 10.2584416,3.96390997 11.3128831,5.2491677 C12.6141818,6.83494433 14.1302338,8.13927766 15.847013,9.24597526 C18.8675844,11.1935629 22.0505455,12.8056076 25.4108571,14.0696007" id="Fill-3" fill="#465B65" sketch:type="MSShapeGroup" mask="url(#mask-2)"></path>
                </g>
                <g id="Group-8">
                    <mask id="mask-4" sketch:name="Clip 7" fill="white">
                        <use xlink:href="#path-3"></use>
                    </mask>
                    <g id="Clip-7"></g>
                    <path d="M113.975501,30.2339213 C116.929995,35.5797804 118.472852,41.3612512 119.253631,47.3825742 C119.941839,52.6877804 119.977995,58.0020553 119.527294,63.3257117 C119.425995,63.3801241 119.303501,63.7472512 119.2368,63.3044471 C118.908281,61.1310794 117.893423,59.3364093 116.23867,57.9098045 C114.63067,56.5238526 112.751813,55.8693405 110.627969,55.8274368 C110.633891,55.9518973 110.621112,56.0094368 110.641371,56.0513405 C110.798774,56.3793784 110.961787,56.704289 111.123553,57.0301378 C112.881475,60.5781997 113.797527,64.3195192 113.79441,68.2950622 C113.793164,69.8376842 113.499865,71.3374643 113.345579,72.8575708 C112.013735,73.4814368 110.591813,73.4498526 109.173631,73.419832 C108.528748,73.4063852 107.8848,73.3454058 107.241164,73.3056911 C107.251761,73.2028079 107.246151,73.0946086 107.275449,72.9970416 C108.44241,69.1190656 108.214255,65.3011309 106.777995,61.5391722 C106.273995,60.2185777 105.664332,58.9514574 104.756384,57.676832 C105.099865,65.793344 98.6803325,70.4862546 93.3844364,70.3692993 C91.0589299,69.2216361 89.0491636,67.7287357 87.9778909,65.2551619 C87.2747221,63.6315467 86.9917091,61.9466395 87.4065662,60.1894952 C87.4729558,60.3861928 87.5340468,60.5847667 87.6057351,60.7792753 C88.7000727,63.7441241 91.9544104,65.2851825 94.9603325,64.2635433 C97.8942545,63.2662959 99.5405922,60.0178148 98.6055273,57.0373302 C97.9540987,54.9590278 96.4982026,53.707856 94.4669299,53.0692924 C95.6575792,52.81099 96.8949818,52.9529625 98.0806442,52.6230485 C100.485631,51.9535261 102.28906,50.4481172 103.771449,48.5124127 C106.337891,45.160423 107.783813,41.2793199 108.931138,37.2715674 C109.537683,35.1535502 110.047294,33.0089522 110.357112,30.8221378 C111.563345,30.6260656 112.769268,30.4299935 113.975501,30.2339213" id="Fill-6" fill="#3674BA" sketch:type="MSShapeGroup" mask="url(#mask-4)"></path>
                </g>
                <g id="Group-11">
                    <mask id="mask-6" sketch:name="Clip 10" fill="white">
                        <use xlink:href="#path-5"></use>
                    </mask>
                    <g id="Clip-10"></g>
                    <path d="M34.6336208,67.8374354 C34.8480623,67.6297928 35.011387,67.3793082 35.3844779,67.390566 C37.0532571,67.4421639 38.7179844,67.321456 40.3833351,67.2320196 C40.5806338,67.2213873 40.8006857,67.1632223 40.9303481,67.3936931 C40.8795429,68.8002842 40.1869714,69.9795316 39.5321143,71.1493976 C36.4005818,76.7451158 31.8302961,80.887023 26.3529974,84.0723357 C20.8984519,87.2445144 14.9776208,89.1126725 8.79933506,90.2081124 C7.04141299,90.519889 5.26634805,90.7400402 3.49502338,90.970511 C1.73304935,91.1997309 0.247231169,90.0786485 0.0246857143,88.3931158 C-0.180716883,86.8364216 0.918296104,85.4939371 2.60982857,85.1602704 C3.18551688,85.046755 3.7958026,85.1452601 4.41824416,84.8703838 C3.61346494,84.1489509 2.95112727,83.4031261 2.95019221,82.2848581 C2.94894545,81.0780918 3.47382857,80.1755969 4.5182961,79.6139612 C5.54343896,79.0629577 6.62967273,79.0886003 7.51642597,79.8262945 C9.60411429,81.5627997 12.047439,82.0368753 14.6547117,82.2710986 C15.8721662,82.3805488 16.8711273,82.0465694 17.9159065,81.6344113 C23.5256727,79.4210162 28.492426,76.2819852 32.304374,71.5024526 C33.2098286,70.3676107 34.0629195,69.1905522 34.6336208,67.8374354" id="Fill-9" fill="#EF4523" sketch:type="MSShapeGroup" mask="url(#mask-6)"></path>
                </g>
                <path d="M113.975501,30.2339213 C112.769268,30.4299935 111.563345,30.6260656 110.357112,30.8221378 C107.853631,31.1998973 105.349527,31.568588 102.848229,31.9572924 C98.3265662,32.6599625 93.8092675,33.3898388 89.2851117,34.0756223 C87.7890078,34.3023405 86.3125403,34.6882306 84.7855792,34.6885433 C84.7886961,33.1249694 84.811761,31.5613955 84.7830857,29.9984471 C84.7746701,29.5634608 84.9227221,29.3623852 85.2976831,29.1794471 C87.1126442,28.2941515 88.9129558,27.3785227 90.7179429,26.4735261 C93.5942026,26.4319351 96.4713974,26.3944093 99.3479688,26.4963543 C104.084384,26.6642821 108.824229,26.8159488 113.452177,27.9898801 C114.671501,28.299155 115.878047,28.6800416 116.896644,29.7482753 C115.833164,29.9249591 114.904332,30.0794402 113.975501,30.2339213" id="Fill-12" fill="#EF4523" sketch:type="MSShapeGroup"></path>
                <path d="M94.466961,53.0692924 C96.4982338,53.707856 97.9541299,54.9590278 98.6055584,57.0373302 C99.5406234,60.0178148 97.8942857,63.2662959 94.9603636,64.2635433 C91.9541299,65.2851825 88.7001039,63.7441241 87.6057662,60.7792753 C87.5340779,60.5847667 87.472987,60.3861928 87.4065974,60.1898079 C86.5401039,56.4538045 89.2047273,52.9629694 93.0060779,52.882289 C93.4913766,52.8719694 93.9801039,53.0036223 94.466961,53.0692924" id="Fill-14" fill="#FBB64F" sketch:type="MSShapeGroup"></path>
                <path d="M93.3845922,70.3693619 C98.6801766,70.4863172 105.100021,65.7934065 104.756229,57.6768945 C105.664177,58.9515199 106.274151,60.2186402 106.778151,61.5392347 C108.214099,65.3011935 108.442566,69.1191282 107.275294,72.9967914 C107.246306,73.0946711 107.251605,73.2028704 107.241008,73.3057536 C102.453787,73.1268808 97.7815792,72.4010698 93.3845922,70.3693619" id="Fill-16" fill="#B0BDC4" sketch:type="MSShapeGroup"></path>
                <path d="M113.345735,72.8576646 C113.499709,71.3375581 113.793319,69.837778 113.794255,68.295156 C113.797371,64.3193003 112.881631,60.5779808 111.123397,57.0302316 C110.961943,56.7043828 110.798618,56.3794722 110.641216,56.0514344 C110.621268,56.0095306 110.634047,55.9516784 110.627813,55.8275306 C112.751969,55.8694344 114.630514,56.5239464 116.238514,57.9098983 C117.893579,59.3365031 118.908436,61.1311732 119.236644,63.3045409 C119.303345,63.747345 119.426151,63.3799052 119.527138,63.3258055 C119.395294,66.2428089 118.839242,69.007833 116.541787,71.0695615 C115.621371,71.895754 114.637995,72.6709739 113.345735,72.8576646" id="Fill-18" fill="#B0BDC4" sketch:type="MSShapeGroup"></path>
                <path d="M84.1712104,26.5398216 C83.3277818,26.4444436 82.4644052,26.3987873 81.7490805,25.842155 C81.0826909,25.3236739 81.0777039,24.7704814 81.727574,24.23699 C82.8206649,23.3401241 85.5616519,23.3420003 86.6603532,24.2407426 C87.2821714,24.7495296 87.2697039,25.3809007 86.6132883,25.8577907 C85.8876779,26.3847151 85.0302234,26.4569522 84.1712104,26.5398216" id="Fill-20" fill="#465B65" sketch:type="MSShapeGroup"></path>
                <path id="Fill-22" fill="#FEFEFE" sketch:type="MSShapeGroup" d="M9.89155325,12.7515392 C9.80396883,12.6849309 9.71638442,12.6183227 9.6288,12.5517144 C9.68677403,12.5029309 9.74443636,12.453522 9.80241039,12.4044258 C9.87752727,12.4769756 9.95202078,12.5492127 10.0271377,12.6214498 C9.98194286,12.6649172 9.93674805,12.7080718 9.89155325,12.7515392"></path>
                <path id="Fill-24" fill="#FEFEFE" sketch:type="MSShapeGroup" d="M10.0269818,12.6215749 C10.1388779,12.7035062 10.1956052,12.7988842 10.1008519,12.9305371 C10.0313455,12.8708086 9.96152727,12.8110801 9.8913974,12.7513515 C9.93659221,12.7081969 9.98178701,12.6650423 10.0269818,12.6215749"></path>
                <path id="Fill-26" fill="#FEFEFE" sketch:type="MSShapeGroup" d="M8.53262338,18.9085491 C8.57937662,18.929501 8.62457143,18.9501402 8.67007792,18.9707794 C8.64233766,18.9992364 8.61584416,19.0495835 8.58654545,19.0511471 C8.54384416,19.0533361 8.49896104,19.0208137 8.45501299,19.002989 C8.48057143,18.9720302 8.50581818,18.9410715 8.53262338,18.9085491"></path>
            </g>
        </g>
    </g>
</svg>